<svg xmlns="http://www.w3.org/2000/svg" version="1.1" x="0px" y="0px" viewBox="0 0 100 100">
    <path d="M86.9,42.5c0-0.1,0-0.1,0-0.2c0-0.1,0-0.1,0-0.2c0-0.1,0-0.1-0.1-0.2c0-0.1-0.1-0.1-0.1-0.2c0-0.1-0.1-0.1-0.1-0.2    c0-0.1-0.1-0.1-0.1-0.2c0-0.1-0.1-0.1-0.1-0.2c0,0-0.1-0.1-0.1-0.1c-0.1,0-0.1-0.1-0.2-0.1c-0.1,0-0.1-0.1-0.2-0.1    c-0.1,0-0.1-0.1-0.2-0.1c-0.1,0-0.1-0.1-0.2-0.1c0,0-0.1,0-0.1,0l-26.3-7.4l-2-15.3h13v5.7c0,1.1,0.9,2.1,2.1,2.1    c1.1,0,2.1-0.9,2.1-2.1v-7.7c0,0,0-0.1,0-0.1c0-0.1,0-0.1,0-0.2c0-0.1,0-0.1,0-0.2c0-0.1,0-0.1-0.1-0.2c0-0.1,0-0.1-0.1-0.2    c0-0.1-0.1-0.1-0.1-0.2c0-0.1-0.1-0.1-0.1-0.2c0-0.1-0.1-0.1-0.1-0.2c0,0-0.1-0.1-0.1-0.1c0,0-0.1-0.1-0.2-0.1    c-0.1,0-0.1-0.1-0.2-0.1c0,0-0.1,0-0.1-0.1L58.2,6c-0.3-0.2-0.6-0.2-1-0.2h-5.6h-3.9h-5.6c-0.3,0-0.7,0.1-1,0.2l-14.9,8    c0,0-0.1,0-0.1,0.1c-0.1,0-0.1,0.1-0.2,0.1c-0.1,0-0.1,0.1-0.2,0.1c0,0-0.1,0.1-0.1,0.1c0,0.1-0.1,0.1-0.1,0.2    c0,0.1-0.1,0.1-0.1,0.2c0,0.1-0.1,0.1-0.1,0.2c0,0.1-0.1,0.1-0.1,0.2c0,0.1,0,0.1-0.1,0.2c0,0.1,0,0.1,0,0.2c0,0.1,0,0.1,0,0.2    c0,0,0,0.1,0,0.1v7.7c0,1.1,0.9,2.1,2.1,2.1c1.1,0,2.1-0.9,2.1-2.1v-5.7h13l-2,15.3L14,40.7c0,0-0.1,0-0.1,0    c-0.1,0-0.1,0.1-0.2,0.1c-0.1,0-0.1,0.1-0.2,0.1c-0.1,0-0.1,0.1-0.2,0.1c-0.1,0-0.1,0.1-0.2,0.1c0,0-0.1,0.1-0.1,0.1    c0,0-0.1,0.1-0.1,0.2c0,0.1-0.1,0.1-0.1,0.2c0,0.1-0.1,0.1-0.1,0.2c0,0.1-0.1,0.1-0.1,0.2c0,0.1,0,0.1-0.1,0.2c0,0.1,0,0.1,0,0.2    c0,0.1,0,0.1,0,0.2c0,0,0,0.1,0,0.1v9.1c0,1.1,0.9,2.1,2.1,2.1s2.1-0.9,2.1-2.1v-7h8.8v6.7c0,1.1,0.9,2.1,2.1,2.1    c1.1,0,2.1-0.9,2.1-2.1v-6.7h9.1l-6.1,46.2c-0.2,1.1,0.6,2.2,1.8,2.3c0.1,0,0.2,0,0.3,0c1,0,1.9-0.8,2.1-1.8l0.1-1.1L49.7,83    l12.8,7.4l0.1,1.1c0.1,1,1,1.8,2.1,1.8c0.1,0,0.2,0,0.3,0c1.1-0.2,1.9-1.2,1.8-2.3l-6.1-46.2h9.1v6.7c0,1.1,0.9,2.1,2.1,2.1    c1.1,0,2.1-0.9,2.1-2.1v-6.7h8.8v7c0,1.1,0.9,2.1,2.1,2.1c1.1,0,2.1-0.9,2.1-2.1v-9.1C86.9,42.6,86.9,42.6,86.9,42.5z M60,71.7    l-7.8-5.3l6.5-4.4L60,71.7z M58.8,74.4l-9.2,5.3l-9.2-5.3l9.2-6.2L58.8,74.4z M42.6,46.6l4.8,4.1l-6,5.2L42.6,46.6z M49.3,17.9H50    h2.7l-3,3.6l-3-3.6H49.3z M57.9,55.8l-6-5.2l4.8-4.1L57.9,55.8z M47.8,23.8l-2.5,2.9l0.7-5.1L47.8,23.8z M53.4,21.6l0.7,5.1    l-2.5-2.9L53.4,21.6z M51.9,36.8L51.9,36.8h3.5l0.5,3.7h-0.5L51.9,36.8z M53.4,30.4l-2.1,2.3h-3.2L46,30.4l3.7-4.4L53.4,30.4z     M43.9,36.8h3.5h0L44,40.6h-0.5L43.9,36.8z M47.9,40.6l1.7-1.9l1.7,1.9h-0.8h-1.8H47.9z M48.8,44.7h1.8h3.8l-4.7,4l-4.7-4H48.8z     M49.7,52.6l7.9,6.8l-7.9,5.3l-7.9-5.3L49.7,52.6z M35.4,13.8l7.2-3.9h5.1h3.9h5.1l7.2,3.9H50h-0.6H35.4z M40.6,62.1l6.5,4.4    l-7.8,5.3L40.6,62.1z M29.5,40.6l10.2-2.9l-0.4,2.9H29.5z M37.3,86.8l1.3-10l8.1,4.6L37.3,86.8z M52.6,81.4l8.1-4.6l1.3,10    L52.6,81.4z M60.1,40.6l-0.4-2.9l10.2,2.9H60.1z"/></svg>